<?xml version="1.0" encoding="UTF-8" standalone="no"?>
<svg
   xmlns:dc="http://purl.org/dc/elements/1.1/"
   xmlns:cc="http://creativecommons.org/ns#"
   xmlns:rdf="http://www.w3.org/1999/02/22-rdf-syntax-ns#"
   xmlns:svg="http://www.w3.org/2000/svg"
   xmlns="http://www.w3.org/2000/svg"
   xmlns:xlink="http://www.w3.org/1999/xlink"
   xmlns:sodipodi="http://sodipodi.sourceforge.net/DTD/sodipodi-0.dtd"
   xmlns:inkscape="http://www.inkscape.org/namespaces/inkscape"
   width="24.416018mm"
   height="24.416018mm"
   viewBox="0 0 24.416017 24.416018"
   version="1.1"
   id="svg8"
   inkscape:version="1.0.1 (3bc2e813f5, 2020-09-07)"
   sodipodi:docname="favicon_bass.svg"
   inkscape:export-filename="/home/jake/code/bass/assets/img/favicon.png"
   inkscape:export-xdpi="133.16"
   inkscape:export-ydpi="133.16">
  <defs
     id="defs2">
    <linearGradient
       inkscape:collect="always"
       id="linearGradient1163">
      <stop
         style="stop-color:#a4006f;stop-opacity:1"
         offset="0"
         id="stop1159" />
      <stop
         style="stop-color:#004f88;stop-opacity:1"
         offset="1"
         id="stop1161" />
    </linearGradient>
    <rect
       x="386.15527"
       y="-230.52551"
       width="121.25221"
       height="71.960182"
       id="rect2555" />
    <rect
       x="80.282982"
       y="68.964394"
       width="5.707345"
       height="8.6653566"
       id="rect835" />
    <rect
       x="80.282982"
       y="68.964394"
       width="5.707345"
       height="8.6653566"
       id="rect1215" />
    <rect
       x="80.282982"
       y="68.964394"
       width="5.707345"
       height="8.6653566"
       id="rect1221" />
    <rect
       x="80.282982"
       y="68.964394"
       width="5.707345"
       height="8.6653566"
       id="rect1227" />
    <rect
       x="80.282982"
       y="68.964394"
       width="5.707345"
       height="8.6653566"
       id="rect1513" />
    <rect
       x="80.282982"
       y="68.964394"
       width="8.6457987"
       height="2.9750774"
       id="rect1554" />
    <rect
       x="80.282982"
       y="68.964394"
       width="9.5530224"
       height="2.8476589"
       id="rect1620" />
    <rect
       x="386.15527"
       y="-230.52551"
       width="121.25221"
       height="71.960182"
       id="rect2563" />
    <rect
       x="386.15527"
       y="-230.52551"
       width="121.25221"
       height="71.960182"
       id="rect2734" />
    <rect
       x="386.15527"
       y="-230.52551"
       width="121.25221"
       height="71.960182"
       id="rect2799" />
    <rect
       x="386.15527"
       y="-230.52551"
       width="121.25221"
       height="71.960182"
       id="rect2832" />
    <rect
       x="386.15527"
       y="-230.52551"
       width="121.25221"
       height="71.960182"
       id="rect2834" />
    <rect
       x="386.15527"
       y="-230.52551"
       width="121.25221"
       height="71.960182"
       id="rect2882" />
    <rect
       x="386.15527"
       y="-230.52551"
       width="121.25221"
       height="71.960182"
       id="rect2884" />
    <rect
       x="386.15527"
       y="-230.52551"
       width="121.25221"
       height="71.960182"
       id="rect2969" />
    <rect
       x="386.15527"
       y="-230.52551"
       width="121.25221"
       height="71.960182"
       id="rect2563-3" />
    <rect
       x="386.15527"
       y="-230.52551"
       width="121.25221"
       height="71.960182"
       id="rect3189" />
    <rect
       x="386.15527"
       y="-230.52551"
       width="121.25221"
       height="71.960182"
       id="rect2734-3" />
    <rect
       x="386.15527"
       y="-230.52551"
       width="121.25221"
       height="71.960182"
       id="rect3192" />
    <rect
       x="386.15527"
       y="-230.52551"
       width="121.25221"
       height="71.960182"
       id="rect2799-7" />
    <rect
       x="386.15527"
       y="-230.52551"
       width="121.25221"
       height="71.960182"
       id="rect3195" />
    <rect
       x="386.15527"
       y="-230.52551"
       width="121.25221"
       height="71.960182"
       id="rect2832-9" />
    <rect
       x="386.15527"
       y="-230.52551"
       width="121.25221"
       height="71.960182"
       id="rect3198" />
    <rect
       x="386.15527"
       y="-230.52551"
       width="121.25221"
       height="71.960182"
       id="rect2834-4" />
    <rect
       x="386.15527"
       y="-230.52551"
       width="121.25221"
       height="71.960182"
       id="rect3201" />
    <rect
       x="386.15527"
       y="-230.52551"
       width="121.25221"
       height="71.960182"
       id="rect2884-9" />
    <rect
       x="386.15527"
       y="-230.52551"
       width="121.25221"
       height="71.960182"
       id="rect3204" />
    <rect
       x="386.15527"
       y="-230.52551"
       width="121.25221"
       height="71.960182"
       id="rect2555-1" />
    <rect
       x="80.282982"
       y="68.964394"
       width="5.707345"
       height="8.6653566"
       id="rect835-4" />
    <rect
       x="80.282982"
       y="68.964394"
       width="5.707345"
       height="8.6653566"
       id="rect1215-3" />
    <rect
       x="80.282982"
       y="68.964394"
       width="5.707345"
       height="8.6653566"
       id="rect1221-7" />
    <rect
       x="80.282982"
       y="68.964394"
       width="5.707345"
       height="8.6653566"
       id="rect1227-2" />
    <rect
       x="80.282982"
       y="68.964394"
       width="5.707345"
       height="8.6653566"
       id="rect1513-7" />
    <rect
       x="80.282982"
       y="68.964394"
       width="8.6457987"
       height="2.9750774"
       id="rect1554-3" />
    <rect
       x="80.282982"
       y="68.964394"
       width="9.5530224"
       height="2.8476589"
       id="rect1620-3" />
    <rect
       x="386.15527"
       y="-230.52551"
       width="121.25221"
       height="71.960182"
       id="rect2563-9" />
    <rect
       x="386.15527"
       y="-230.52551"
       width="121.25221"
       height="71.960182"
       id="rect2734-2" />
    <rect
       x="386.15527"
       y="-230.52551"
       width="121.25221"
       height="71.960182"
       id="rect2799-4" />
    <rect
       x="386.15527"
       y="-230.52551"
       width="121.25221"
       height="71.960182"
       id="rect2832-4" />
    <rect
       x="386.15527"
       y="-230.52551"
       width="121.25221"
       height="71.960182"
       id="rect2834-49" />
    <rect
       x="386.15527"
       y="-230.52551"
       width="121.25221"
       height="71.960182"
       id="rect2882-9" />
    <rect
       x="386.15527"
       y="-230.52551"
       width="121.25221"
       height="71.960182"
       id="rect2884-3" />
    <rect
       x="386.15527"
       y="-230.52551"
       width="121.25221"
       height="71.960182"
       id="rect2969-8" />
    <rect
       x="80.282982"
       y="68.964394"
       width="5.707345"
       height="8.6653566"
       id="rect835-1" />
    <rect
       x="80.282982"
       y="68.964394"
       width="5.707345"
       height="8.6653566"
       id="rect1215-2" />
    <rect
       x="80.282982"
       y="68.964394"
       width="5.707345"
       height="8.6653566"
       id="rect1221-5" />
    <rect
       x="80.282982"
       y="68.964394"
       width="5.707345"
       height="8.6653566"
       id="rect1227-3" />
    <rect
       x="80.282982"
       y="68.964394"
       width="5.707345"
       height="8.6653566"
       id="rect1513-9" />
    <rect
       x="80.282982"
       y="68.964394"
       width="8.6457987"
       height="2.9750774"
       id="rect1554-1" />
    <rect
       x="80.282982"
       y="68.964394"
       width="9.5530224"
       height="2.8476589"
       id="rect1620-8" />
    <rect
       x="80.282982"
       y="68.964394"
       width="8.6457987"
       height="2.9750774"
       id="rect1554-1-1" />
    <rect
       x="80.282982"
       y="68.964394"
       width="8.6457987"
       height="2.9750774"
       id="rect5103" />
    <rect
       x="80.282982"
       y="68.964394"
       width="9.5530224"
       height="2.8476589"
       id="rect1620-8-9" />
    <rect
       x="80.282982"
       y="68.964394"
       width="9.5530224"
       height="2.8476589"
       id="rect5106" />
    <rect
       x="386.15527"
       y="-230.52551"
       width="121.25221"
       height="71.960182"
       id="rect2799-7-6" />
    <rect
       x="386.15527"
       y="-230.52551"
       width="121.25221"
       height="71.960182"
       id="rect5280" />
    <linearGradient
       inkscape:collect="always"
       xlink:href="#linearGradient1163"
       id="linearGradient1165"
       x1="1015.6761"
       y1="-45.896687"
       x2="1012.2717"
       y2="-77.242134"
       gradientUnits="userSpaceOnUse"
       gradientTransform="translate(-1028.0122,170.05994)" />
  </defs>
  <sodipodi:namedview
     id="base"
     pagecolor="#ffffff"
     bordercolor="#666666"
     borderopacity="1.0"
     inkscape:pageopacity="0.0"
     inkscape:pageshadow="2"
     inkscape:zoom="4.1884337"
     inkscape:cx="102.32562"
     inkscape:cy="66.817742"
     inkscape:document-units="mm"
     inkscape:current-layer="layer1"
     inkscape:document-rotation="0"
     showgrid="false"
     showguides="true"
     inkscape:guide-bbox="true"
     inkscape:snap-global="true"
     inkscape:snap-bbox="true"
     inkscape:snap-smooth-nodes="true"
     inkscape:snap-midpoints="true"
     inkscape:snap-intersection-paths="true"
     inkscape:object-paths="true"
     inkscape:bbox-nodes="true"
     inkscape:bbox-paths="true"
     inkscape:snap-bbox-edge-midpoints="true"
     inkscape:snap-bbox-midpoints="true"
     inkscape:snap-object-midpoints="true"
     inkscape:snap-center="true" />
  <metadata
     id="metadata5">
    <rdf:RDF>
      <cc:Work
         rdf:about="">
        <dc:format>image/svg+xml</dc:format>
        <dc:type
           rdf:resource="http://purl.org/dc/dcmitype/StillImage" />
        <dc:title></dc:title>
      </cc:Work>
    </rdf:RDF>
  </metadata>
  <g
     inkscape:label="Layer 1"
     inkscape:groupmode="layer"
     id="layer1"
     transform="translate(-35.955287,-90.904418)">
    <g
       id="g1187">
      <circle
         style="fill:url(#linearGradient1165);fill-opacity:1;fill-rule:evenodd;stroke:#ffffff;stroke-width:0.1;stroke-linecap:round;stroke-linejoin:round;paint-order:stroke fill markers"
         id="path1134"
         cx="48.163296"
         cy="103.11243"
         r="12.158009" />
      <g
         id="g1150"
         transform="matrix(1.8245828,0,0,1.8245828,-1809.6447,218.84175)"
         style="fill:#ffffff;fill-opacity:1;stroke-width:0.54807">
        <path
           id="path1114"
           style="font-style:normal;font-variant:normal;font-weight:normal;font-stretch:normal;font-size:2.32833px;line-height:0.85;font-family:Gudariak;-inkscape-font-specification:Gudariak;text-align:start;letter-spacing:-0.035658px;word-spacing:0px;text-anchor:start;white-space:pre;fill:#ffffff;fill-opacity:1;fill-rule:evenodd;stroke:none;stroke-width:3.77952;stroke-linecap:round;stroke-linejoin:round;stroke-miterlimit:4;stroke-dasharray:none;stroke-opacity:1;paint-order:markers fill stroke"
           d="m -199.04297,55.869141 c -3.14322,-0.01103 -6.25364,0.818095 -9.01758,2.302734 -3.25356,1.61003 -6.24985,3.931037 -8.11523,7.09375 -2.29915,3.806646 -3.32273,8.427788 -2.42969,12.808594 0.66892,3.413115 3.15781,6.500604 6.5293,7.537109 2.82669,0.922741 6.14733,0.428649 8.40234,-1.613281 3.14943,-2.825378 3.59348,-8.208306 0.7461,-11.398438 -1.69506,-2.047757 -4.68169,-3.106845 -7.21875,-2.095703 -0.99993,0.302944 -1.88769,1.019074 -2.95313,1.060547 -1.1944,-0.11744 -1.81345,-1.53074 -1.44727,-2.589844 0.52412,-1.961046 1.22944,-3.979179 2.70313,-5.441406 1.30473,-1.309189 2.98637,-2.174996 4.66211,-2.912109 2.03847,-0.790723 4.27121,-1.345016 6.46484,-1.033203 3.6294,0.574442 6.61611,3.274244 8.21875,6.492187 1.98469,3.797233 2.5568,8.117471 3.05469,12.316406 0.48962,5.864438 -0.23561,11.797188 -1.78516,17.458985 -2.03571,7.287111 -5.74388,14.058461 -10.55664,19.878911 -1.04305,1.33681 -2.16464,2.60289 -3.30859,3.8496 a 45.95153,45.95153 0 0 0 3.66992,1.85938 c 5.03841,-4.41541 9.8234,-9.11342 13.94141,-14.41797 4.81,-6.55383 7.83107,-14.325258 9.11719,-22.308593 0.65512,-4.354111 0.39332,-8.854197 -0.92383,-13.050781 -1.1613,-4.034996 -3.24157,-8.000752 -6.60547,-10.650391 -3.34942,-2.845204 -7.48852,-4.947625 -11.9082,-5.132813 -0.41377,-0.02345 -0.82648,-0.02264 -1.24024,-0.01367 z m 21.64844,0.519531 v 5.007812 c 1.49231,2.133676 2.68037,4.520241 3.57617,7.142578 2.13157,6.240268 2.56009,12.252847 1.38086,18.861329 -0.92407,5.176162 -2.62892,10.362064 -4.95703,15.121089 v 3.61914 h 15.70703 c 9.52346,0 14.00195,-5.54398 14.00195,-15.281245 0,-6.04146 -2.27513,-9.239326 -5.90039,-11.158203 3.12737,-1.920091 5.18946,-4.76244 5.18946,-10.164063 0,-8.813538 -4.12362,-13.148437 -13.00782,-13.148437 z m 15.4668,6.904297 h 0.002 0.002 c 0.0114,0.0022 2.23231,0.424663 3.1836,1.375 1.78194,1.779956 2.38148,5.543965 1.0664,8.267578 -0.27584,0.567339 -1.77092,2.140677 -2.33984,2.451172 -0.43445,0.240741 -2.89459,0.437883 -3.63867,0.162109 -1.7516,-0.648712 -3.02421,-2.494394 -3.39454,-4.757812 -0.37928,-2.263432 0.24125,-4.658079 1.77149,-6.091797 1.04286,-0.979997 3.3363,-1.404156 3.34766,-1.40625 z m -0.43946,21.410156 c 1.08912,-0.06526 2.25496,0.333757 3.39453,1.369141 1.47576,1.340966 2.00391,2.642315 2.00391,5.046875 0,3.11004 -1.33452,5.208865 -3.51367,6.160156 -0.15861,0.06924 -2.53533,0.262997 -2.67188,0.228515 -2.60671,-0.657815 -4.81298,-3.995696 -4.15234,-7.498046 0.52341,-2.776108 2.5434,-5.163078 4.93945,-5.306641 z"
           transform="matrix(0.14501032,0,0,0.14501032,1044.6769,-74.965168)" />
      </g>
    </g>
    <g
       id="g2577"
       transform="translate(0,-2.8854995)" />
  </g>
</svg>
