<?xml version="1.0" encoding="UTF-8" standalone="no"?>
<svg
   xmlns:dc="http://purl.org/dc/elements/1.1/"
   xmlns:cc="http://creativecommons.org/ns#"
   xmlns:rdf="http://www.w3.org/1999/02/22-rdf-syntax-ns#"
   xmlns:svg="http://www.w3.org/2000/svg"
   xmlns="http://www.w3.org/2000/svg"
   xmlns:xlink="http://www.w3.org/1999/xlink"
   xmlns:sodipodi="http://sodipodi.sourceforge.net/DTD/sodipodi-0.dtd"
   xmlns:inkscape="http://www.inkscape.org/namespaces/inkscape"
   width="99.343719mm"
   height="45.333565mm"
   viewBox="0 0 99.343719 45.333565"
   version="1.1"
   id="svg8"
   inkscape:version="1.0.1 (3bc2e813f5, 2020-09-07)"
   sodipodi:docname="logo_bass.svg"
   inkscape:export-filename="/home/jake/code/bass/assets/img/logo_bass.png"
   inkscape:export-xdpi="153.40678"
   inkscape:export-ydpi="153.40678">
  <defs
     id="defs2">
    <linearGradient
       inkscape:collect="always"
       id="linearGradient1163">
      <stop
         style="stop-color:#a4006f;stop-opacity:1"
         offset="0"
         id="stop1159" />
      <stop
         style="stop-color:#004f88;stop-opacity:1"
         offset="1"
         id="stop1161" />
    </linearGradient>
    <rect
       x="386.15527"
       y="-230.52551"
       width="121.25221"
       height="71.960182"
       id="rect2555" />
    <rect
       x="80.282982"
       y="68.964394"
       width="5.707345"
       height="8.6653566"
       id="rect835" />
    <rect
       x="80.282982"
       y="68.964394"
       width="5.707345"
       height="8.6653566"
       id="rect1215" />
    <rect
       x="80.282982"
       y="68.964394"
       width="5.707345"
       height="8.6653566"
       id="rect1221" />
    <rect
       x="80.282982"
       y="68.964394"
       width="5.707345"
       height="8.6653566"
       id="rect1227" />
    <rect
       x="80.282982"
       y="68.964394"
       width="5.707345"
       height="8.6653566"
       id="rect1513" />
    <rect
       x="80.282982"
       y="68.964394"
       width="8.6457987"
       height="2.9750774"
       id="rect1554" />
    <rect
       x="80.282982"
       y="68.964394"
       width="9.5530224"
       height="2.8476589"
       id="rect1620" />
    <rect
       x="386.15527"
       y="-230.52551"
       width="121.25221"
       height="71.960182"
       id="rect2563" />
    <rect
       x="386.15527"
       y="-230.52551"
       width="121.25221"
       height="71.960182"
       id="rect2734" />
    <rect
       x="386.15527"
       y="-230.52551"
       width="121.25221"
       height="71.960182"
       id="rect2799" />
    <rect
       x="386.15527"
       y="-230.52551"
       width="121.25221"
       height="71.960182"
       id="rect2832" />
    <rect
       x="386.15527"
       y="-230.52551"
       width="121.25221"
       height="71.960182"
       id="rect2834" />
    <rect
       x="386.15527"
       y="-230.52551"
       width="121.25221"
       height="71.960182"
       id="rect2882" />
    <rect
       x="386.15527"
       y="-230.52551"
       width="121.25221"
       height="71.960182"
       id="rect2884" />
    <rect
       x="386.15527"
       y="-230.52551"
       width="121.25221"
       height="71.960182"
       id="rect2969" />
    <rect
       x="386.15527"
       y="-230.52551"
       width="121.25221"
       height="71.960182"
       id="rect2563-3" />
    <rect
       x="386.15527"
       y="-230.52551"
       width="121.25221"
       height="71.960182"
       id="rect3189" />
    <rect
       x="386.15527"
       y="-230.52551"
       width="121.25221"
       height="71.960182"
       id="rect2734-3" />
    <rect
       x="386.15527"
       y="-230.52551"
       width="121.25221"
       height="71.960182"
       id="rect3192" />
    <rect
       x="386.15527"
       y="-230.52551"
       width="121.25221"
       height="71.960182"
       id="rect2799-7" />
    <rect
       x="386.15527"
       y="-230.52551"
       width="121.25221"
       height="71.960182"
       id="rect3195" />
    <rect
       x="386.15527"
       y="-230.52551"
       width="121.25221"
       height="71.960182"
       id="rect2832-9" />
    <rect
       x="386.15527"
       y="-230.52551"
       width="121.25221"
       height="71.960182"
       id="rect3198" />
    <rect
       x="386.15527"
       y="-230.52551"
       width="121.25221"
       height="71.960182"
       id="rect2834-4" />
    <rect
       x="386.15527"
       y="-230.52551"
       width="121.25221"
       height="71.960182"
       id="rect3201" />
    <rect
       x="386.15527"
       y="-230.52551"
       width="121.25221"
       height="71.960182"
       id="rect2884-9" />
    <rect
       x="386.15527"
       y="-230.52551"
       width="121.25221"
       height="71.960182"
       id="rect3204" />
    <rect
       x="386.15527"
       y="-230.52551"
       width="121.25221"
       height="71.960182"
       id="rect2555-1" />
    <rect
       x="80.282982"
       y="68.964394"
       width="5.707345"
       height="8.6653566"
       id="rect835-4" />
    <rect
       x="80.282982"
       y="68.964394"
       width="5.707345"
       height="8.6653566"
       id="rect1215-3" />
    <rect
       x="80.282982"
       y="68.964394"
       width="5.707345"
       height="8.6653566"
       id="rect1221-7" />
    <rect
       x="80.282982"
       y="68.964394"
       width="5.707345"
       height="8.6653566"
       id="rect1227-2" />
    <rect
       x="80.282982"
       y="68.964394"
       width="5.707345"
       height="8.6653566"
       id="rect1513-7" />
    <rect
       x="80.282982"
       y="68.964394"
       width="8.6457987"
       height="2.9750774"
       id="rect1554-3" />
    <rect
       x="80.282982"
       y="68.964394"
       width="9.5530224"
       height="2.8476589"
       id="rect1620-3" />
    <rect
       x="386.15527"
       y="-230.52551"
       width="121.25221"
       height="71.960182"
       id="rect2563-9" />
    <rect
       x="386.15527"
       y="-230.52551"
       width="121.25221"
       height="71.960182"
       id="rect2734-2" />
    <rect
       x="386.15527"
       y="-230.52551"
       width="121.25221"
       height="71.960182"
       id="rect2799-4" />
    <rect
       x="386.15527"
       y="-230.52551"
       width="121.25221"
       height="71.960182"
       id="rect2832-4" />
    <rect
       x="386.15527"
       y="-230.52551"
       width="121.25221"
       height="71.960182"
       id="rect2834-49" />
    <rect
       x="386.15527"
       y="-230.52551"
       width="121.25221"
       height="71.960182"
       id="rect2882-9" />
    <rect
       x="386.15527"
       y="-230.52551"
       width="121.25221"
       height="71.960182"
       id="rect2884-3" />
    <rect
       x="386.15527"
       y="-230.52551"
       width="121.25221"
       height="71.960182"
       id="rect2969-8" />
    <rect
       x="80.282982"
       y="68.964394"
       width="5.707345"
       height="8.6653566"
       id="rect835-1" />
    <rect
       x="80.282982"
       y="68.964394"
       width="5.707345"
       height="8.6653566"
       id="rect1215-2" />
    <rect
       x="80.282982"
       y="68.964394"
       width="5.707345"
       height="8.6653566"
       id="rect1221-5" />
    <rect
       x="80.282982"
       y="68.964394"
       width="5.707345"
       height="8.6653566"
       id="rect1227-3" />
    <rect
       x="80.282982"
       y="68.964394"
       width="5.707345"
       height="8.6653566"
       id="rect1513-9" />
    <rect
       x="80.282982"
       y="68.964394"
       width="8.6457987"
       height="2.9750774"
       id="rect1554-1" />
    <rect
       x="80.282982"
       y="68.964394"
       width="9.5530224"
       height="2.8476589"
       id="rect1620-8" />
    <rect
       x="80.282982"
       y="68.964394"
       width="8.6457987"
       height="2.9750774"
       id="rect1554-1-1" />
    <rect
       x="80.282982"
       y="68.964394"
       width="8.6457987"
       height="2.9750774"
       id="rect5103" />
    <rect
       x="80.282982"
       y="68.964394"
       width="9.5530224"
       height="2.8476589"
       id="rect1620-8-9" />
    <rect
       x="80.282982"
       y="68.964394"
       width="9.5530224"
       height="2.8476589"
       id="rect5106" />
    <rect
       x="386.15527"
       y="-230.52551"
       width="121.25221"
       height="71.960182"
       id="rect2799-7-6" />
    <rect
       x="386.15527"
       y="-230.52551"
       width="121.25221"
       height="71.960182"
       id="rect5280" />
    <linearGradient
       inkscape:collect="always"
       xlink:href="#linearGradient1163"
       id="linearGradient1165"
       x1="1015.6761"
       y1="-45.896687"
       x2="1012.2717"
       y2="-77.242134"
       gradientUnits="userSpaceOnUse" />
  </defs>
  <sodipodi:namedview
     id="base"
     pagecolor="#ffffff"
     bordercolor="#666666"
     borderopacity="1.0"
     inkscape:pageopacity="0.0"
     inkscape:pageshadow="2"
     inkscape:zoom="1.8212016"
     inkscape:cx="-79.030157"
     inkscape:cy="153.70011"
     inkscape:document-units="mm"
     inkscape:current-layer="g3178"
     inkscape:document-rotation="0"
     showgrid="false"
     showguides="true"
     inkscape:guide-bbox="true"
     inkscape:snap-global="true"
     inkscape:snap-bbox="true"
     inkscape:snap-smooth-nodes="true"
     inkscape:snap-midpoints="true"
     inkscape:snap-intersection-paths="true"
     inkscape:object-paths="true"
     inkscape:bbox-nodes="true"
     inkscape:bbox-paths="true"
     inkscape:snap-bbox-edge-midpoints="true"
     inkscape:snap-bbox-midpoints="true"
     inkscape:snap-object-midpoints="true"
     inkscape:snap-center="true">
    <sodipodi:guide
       position="-17.88487,31.013412"
       orientation="1,0"
       id="guide1247" />
    <sodipodi:guide
       position="34.634841,31.013412"
       orientation="1,0"
       id="guide1249" />
    <sodipodi:guide
       position="-64.891631,116.32925"
       orientation="1,0"
       id="guide1622" />
    <sodipodi:guide
       position="65.17305,116.32925"
       orientation="1,0"
       id="guide1624" />
    <sodipodi:guide
       position="-4.144533,24.173712"
       orientation="0.70722594,0.7069876"
       id="guide2499" />
    <sodipodi:guide
       position="-0.896147,-0.086375552"
       orientation="0.70710678,-0.70710678"
       id="guide2501" />
    <sodipodi:guide
       position="458.56552,291.07296"
       orientation="0,-1"
       id="guide2584" />
    <sodipodi:guide
       position="403.77546,148.36663"
       orientation="0,-1"
       id="guide2658" />
    <sodipodi:guide
       position="552.84694,8.9930804"
       orientation="0,-1"
       id="guide2722" />
    <sodipodi:guide
       position="916.03348,399.46496"
       orientation="0,-1"
       id="guide2801" />
    <sodipodi:guide
       position="1055.1955,487.56197"
       orientation="0,-1"
       id="guide2803" />
    <sodipodi:guide
       position="1135.2507,421.38245"
       orientation="0,-1"
       id="guide2808" />
    <sodipodi:guide
       position="1119.7032,444.28026"
       orientation="1,0"
       id="guide2836" />
    <sodipodi:guide
       position="23.161591,24.042872"
       orientation="0,-1"
       id="guide3611" />
    <sodipodi:guide
       position="148.49728,57.634542"
       orientation="1,0"
       id="guide3613" />
    <sodipodi:guide
       position="549.63388,247.90645"
       orientation="0,-1"
       id="guide5267" />
    <sodipodi:guide
       position="549.35043,222.3193"
       orientation="0,-1"
       id="guide5269" />
    <sodipodi:guide
       position="-36.133404,24.282737"
       orientation="0,-1"
       id="guide1152" />
  </sodipodi:namedview>
  <metadata
     id="metadata5">
    <rdf:RDF>
      <cc:Work
         rdf:about="">
        <dc:format>image/svg+xml</dc:format>
        <dc:type
           rdf:resource="http://purl.org/dc/dcmitype/StillImage" />
        <dc:title />
      </cc:Work>
    </rdf:RDF>
  </metadata>
  <g
     inkscape:label="Layer 1"
     inkscape:groupmode="layer"
     id="layer1"
     transform="translate(-96.454709,-82.061598)">
    <g
       id="g2577"
       transform="translate(0,-2.8854995)" />
    <g
       id="g3178"
       transform="translate(-967.51279,161.21712)"
       style="stroke-width:1">
      <g
         id="g3626"
         transform="matrix(0.47726216,0,0,0.47726216,582.14152,-29.528805)"
         style="stroke-width:2.09527">
        <path
           id="path3150"
           style="font-style:normal;font-variant:normal;font-weight:normal;font-stretch:normal;font-size:2.32833px;line-height:0.85;font-family:Gudariak;-inkscape-font-specification:Gudariak;text-align:start;letter-spacing:-0.035658px;word-spacing:0px;text-anchor:start;white-space:pre;fill:#000000;fill-opacity:1;fill-rule:evenodd;stroke:none;stroke-width:7.91919;stroke-linecap:round;stroke-linejoin:round;stroke-miterlimit:4;stroke-dasharray:none;stroke-opacity:1;paint-order:markers fill stroke"
           d="m 4024.3301,-378.31055 v 23.00196 c 6.8553,9.80092 12.3146,20.76884 16.4297,32.81445 9.7924,28.66438 11.7595,56.28099 6.3418,86.63672 -4.2436,23.77646 -12.0763,47.59857 -22.7715,69.45898 v 16.625 h 72.1523 c 43.7477,0 64.3164,-25.46567 64.3164,-70.19336 0,-27.75118 -10.4465,-42.44354 -27.0976,-51.25781 14.3641,-8.81987 23.832,-21.87539 23.832,-46.6875 0,-40.4846 -18.9366,-60.39844 -59.7461,-60.39844 z m 70.2935,42.41662 v 0 c 0,0 6.3606,1.20193 9.0768,3.91529 5.0742,5.06882 6.7827,15.78477 3.0282,23.54085 -0.7819,1.61547 -5.0474,6.09662 -6.6668,6.98082 -1.2555,0.68538 -8.2408,1.24824 -10.3603,0.46317 -4.9881,-1.84758 -8.6176,-7.1039 -9.6715,-13.54949 -1.0539,-6.44559 0.6984,-13.26223 5.0457,-17.34507 2.9786,-2.79756 6.3239,-4.00557 9.5459,-4.00557 z m -3.0125,99.57434 c 0,0.47038 1.5634,0.26691 2.8771,0.26691 5.5694,4.2e-4 5.0517,-0.20264 8.755,3.26176 4.0651,3.80207 5.5912,7.37773 5.5912,14.0892 0,8.68054 -3.7243,14.53877 -9.8088,17.19395 -0.4454,0.19444 -7.0787,0.73191 -7.4596,0.63587 -7.2736,-1.83586 -13.1153,-11.09926 -11.587,-20.9287 1.0444,-6.71451 4.1358,-10.97031 8.4979,-13.11772 1.5863,-0.78086 1.9208,-1.06388 2.4434,-1.15202 0.1291,-0.0228 0.4494,0.14285 0.4494,-0.0334 v -0.002 c 0,-0.13236 0.2414,-0.37059 0.2414,-0.21393 z"
           sodipodi:nodetypes="ccssccsscsscscsssssssssssscsscsssss"
           transform="scale(0.26458333)" />
        <path
           id="path3152"
           style="fill:#000000;fill-opacity:1;fill-rule:evenodd;stroke:none;stroke-width:20.9526;stroke-linecap:round;stroke-linejoin:round;stroke-miterlimit:4;stroke-dasharray:none;stroke-opacity:1;paint-order:stroke fill markers"
           d="m 1057.5913,-32.277989 c -0.4583,0.599289 -0.9258,1.187488 -1.4047,1.760166 -1.6125,1.928431 -3.4087,3.890714 -5.3906,5.897136 h 16.3554 v -6.879509 h 1.7595 v -0.777793 z m 14.8394,0 v 0.777793 h 1.7597 v 3.566171 h -1.7597 v 0.89118 h 1.7597 v 1.782842 h -1.7597 v 0.639316 h 7.7465 v -6.879509 h 1.7601 v -0.777793 z m 0,7.017986 v -1.782842 h -1.7601 v 1.782842 z m 0,-2.674022 v -3.566171 h -1.7601 v 3.566171 z m 13.0258,-4.343964 v 0.777793 h 1.7602 v 6.879509 h 5.9868 v -1.530496 h 1.7596 v 0.89118 h 1.7601 v -3.565687 h -3.5197 v -3.452299 z m 0,0.777793 h -1.7596 v 3.566171 h 1.7596 z m 14.7859,-0.777793 v 1.669455 h -1.7596 v -0.891662 h -1.7596 v 1.782843 h 3.5192 v 5.096666 h 5.9873 v -0.639316 h 1.7597 v -6.240193 h -1.7597 v -0.777793 z m 13.0263,0 v 0.777793 h -1.7596 v 6.240193 h 1.7596 v 0.639316 h 5.9868 v -7.657302 z m 13.0263,0 v 1.669455 h -1.7601 v -0.891662 h -1.7596 v 6.240193 h 1.7596 v -0.89118 h 1.7601 v 1.530496 h 21.0898 v -6.879509 h 1.7596 v -0.777793 z m 26.3692,0 v 0.777793 h 1.7596 v 6.879509 h 5.9873 v -7.657302 z m 0,0.777793 h -1.7597 v 3.566171 h 1.7597 z m 11.2661,-0.777793 v 7.017986 h 1.7601 v -7.017986 z m 3.5198,0 v 7.657302 h 5.9868 v -7.657302 z m 11.2661,0 v 0.777793 h 1.7602 v 6.240193 h -1.7602 v 0.639316 h 7.7469 v -0.639316 h 1.7597 v -6.240193 h -1.7597 v -0.777793 z m 0,7.017986 v -6.240193 h -1.7595 v 6.240193 z m 14.7859,-7.017986 v 0.777793 h -1.7596 v 6.240193 h 1.7596 v 0.639316 h 5.9873 v -7.657302 z m 13.0263,0 v 7.657302 h 5.7725 v -7.657302 z m -3.5197,0.777793 v 6.240193 h 1.7596 v -6.240193 z m -119.3118,4.457351 v 2.422158 h 1.7596 v -2.422158 z m 67.2076,0 v 2.422158 h 1.7597 v -2.422158 z m -105.0057,7.124138 c -2.6965,2.469492 -5.6641,5.013911 -8.9078,7.650064 h 15.0574 v -1.443644 h 1.7596 v 0.891662 h 1.7597 v -3.56617 h -3.5193 v -3.531912 z m 13.1887,0 v 1.749069 h -1.7597 v -0.891182 h -1.7601 v 1.782844 h 3.5198 v 5.009333 h 3.3094 v -7.650064 z m 10.3484,0 v 0.857887 h -3.5193 v 2.674025 h 3.5193 v 0.891664 h -3.5193 v 2.674506 h 3.5193 v 0.551982 h 3.3099 v -7.650064 z m 6.8291,0 v 7.098082 h 1.7601 v -1.782844 h 1.7597 v 2.334826 h 3.3094 v -7.650064 z m 13.8687,0 v 1.749069 h -1.7602 v -0.891182 h -1.7595 v 1.782844 h 3.5197 v 0.891181 h -3.5197 v 4.118152 h 6.8291 v -7.650064 z m 6.8292,0 v 1.749069 h 1.7597 v -1.749069 z m 3.5192,0 v 7.650064 h 3.3094 v -7.650064 z m 10.349,0 v 7.650064 h 3.3094 v -1.443644 h 1.7596 v 0.891662 h 1.7601 v -3.56617 h -3.5197 v -3.531912 z m 10.3484,0 v 1.749069 h -1.7596 v -0.891182 h -1.7597 v 1.782844 h 3.5193 v 5.009333 h 5.0696 v -6.792177 h -1.7597 v -0.857887 z m 10.3489,0 v 0.857887 h -1.7601 v 6.792177 h 5.0695 v -7.650064 z m 10.3489,0 v 0.857887 h -3.5197 v 2.674025 h 3.5197 v 0.891664 h -3.5197 v 2.674506 h 3.5197 v 0.551982 h 3.3094 v -7.650064 z m 8.5889,0 v 0.857887 h 1.7595 v 6.240195 h -1.7595 v 0.551982 h 17.4946 v -1.443644 h 1.7601 v 0.891662 h 1.7596 v -3.56617 h -3.5197 v -3.531912 z m 0,7.098082 v -6.240195 h -1.7602 v 6.240195 z m 24.5341,-7.098082 v 1.749069 h -1.7602 v -0.891182 h -1.7596 v 1.782844 h 3.5198 v 5.009333 h 3.3094 v -0.551982 h 1.7597 v -6.240195 h -1.7597 v -0.857887 z m 10.3484,0 v 0.857887 h -1.7596 v 6.240195 h 1.7596 v 0.551982 h 5.0696 v -6.792177 h -1.7602 v -0.857887 z m 10.3489,0 v 0.857887 h -1.76 v 6.792177 h 5.0694 v -7.650064 z m 10.3489,0 v 0.857887 h -3.5197 v 2.674025 h 3.5197 v 0.891664 h -3.5197 v 2.674506 h 3.5197 v 0.551982 h 6.2544 v -7.650064 z m -98.7352,0.857887 v 6.240195 h 1.7596 v -6.240195 z m -10.3484,1.782844 v 5.009333 h 1.7597 v -5.009333 z"
           sodipodi:nodetypes="cscccccccccccccccccccccccccccccccccccccccccccccccccccccccccccccccccccccccccccccccccccccccccccccccccccccccccccccccccccccccccccccccccccccccccccccccccccccccccccccccccccccccccccccccccccccccccccccccccccccccccccccccccccccccccccccccccccccccccccccccccccccccccccccccccccccccccccccccccccccccccccccccccccccccccccccccccccccccccccccccccccccccccccccccccccccccc" />
        <path
           id="path3154"
           style="fill:#000000;stroke-width:2.09529"
           d="m 1038.4609,-100.72656 c -3.8203,-0.0141 -7.6011,0.99592 -10.9605,2.800277 -3.9543,1.956753 -7.5958,4.777825 -9.8624,8.621641 -2.7944,4.626409 -4.0379,10.242136 -2.9525,15.566361 0.8176,4.148125 3.8387,7.900666 7.9365,9.160381 3.4356,1.121459 7.4698,0.521762 10.211,-1.95993 3.827,-3.433828 4.3667,-9.976151 0.9068,-13.853273 -2.0604,-2.488754 -5.6902,-3.776079 -8.7737,-2.54718 -1.2152,0.368219 -2.2939,1.237492 -3.5891,1.287892 -1.4514,-0.142747 -2.2028,-1.861247 -1.7579,-3.148437 0.6386,-2.383355 1.4931,-4.835047 3.2846,-6.61217 1.5853,-1.591123 3.6293,-2.644323 5.6666,-3.540174 2.4771,-0.961004 5.1899,-1.634408 7.8565,-1.255439 4.4107,0.698111 8.0404,3.980691 9.9881,7.891627 2.4123,4.614973 3.1068,9.865995 3.7126,14.96917 0.5976,7.127351 -0.2864,14.336704 -2.1686,21.217774 -2.474,8.856404 -6.9806,17.085169 -12.8298,24.159054 -3.246,4.160212 -7.0444,7.828108 -10.6282,11.685583 -0.8615,0.972551 -1.8884,1.827205 -2.665,2.857622 -0.444,1.072455 0.5823,2.719865 1.8164,2.15625 1.2132,-0.611436 2.1034,-1.681558 3.214,-2.446808 9.2492,-7.505068 18.3092,-15.388065 25.6448,-24.836749 5.8454,-7.965203 9.519,-17.408589 11.0817,-27.111143 0.7972,-5.291778 0.4826,-10.761981 -1.1226,-15.862311 -1.4116,-4.903935 -3.9403,-9.722796 -8.0289,-12.943038 -4.0702,-3.457921 -9.1025,-6.01345 -14.4734,-6.23852 -0.5018,-0.028 -1.0046,-0.0295 -1.507,-0.0185 z" />
        <g
           id="g3160"
           style="stroke-width:2.09527"
           transform="translate(-3.1750001)">
          <path
             id="path3156"
             style="font-style:normal;font-variant:normal;font-weight:normal;font-stretch:normal;font-size:2.32833px;line-height:0.85;font-family:Gudariak;-inkscape-font-specification:Gudariak;text-align:start;letter-spacing:-0.035658px;word-spacing:0px;text-anchor:start;white-space:pre;fill:#000000;fill-opacity:1;fill-rule:evenodd;stroke:none;stroke-width:7.91919;stroke-linecap:round;stroke-linejoin:round;stroke-miterlimit:4;stroke-dasharray:none;stroke-opacity:1;paint-order:markers fill stroke"
             d="m 586.88086,224.48438 c -82.62841,-0.10319 -64.47461,235.0664 -64.47461,235.0664 h 47.15234 c 0,0 1.48114,-29.72487 17.32227,-29.70508 15.8279,0.0197 17.19531,29.70508 17.19531,29.70508 h 46.625 c 0,0 18.73931,-234.96338 -63.82031,-235.0664 z m -1,96.94531 h 0.002 c 0,0 6.36178,1.20265 9.07813,3.91601 5.07401,5.06882 6.78192,15.78494 3.02734,23.54102 -0.78198,1.61547 -5.04686,6.09627 -6.66601,6.98047 -1.25556,0.68538 -8.24177,1.24796 -10.36133,0.46289 -4.98822,-1.84758 -8.61815,-7.10324 -9.67188,-13.54883 -1.05411,-6.44559 0.69966,-13.26286 5.04688,-17.3457 2.97864,-2.79756 6.32287,-4.00586 9.54492,-4.00586 z"
             transform="matrix(0.26458333,0,0,0.26458333,967.51279,-161.21712)" />
        </g>
        <g
           id="g3168"
           style="stroke-width:2.09527"
           transform="translate(-5.2916667)">
          <path
             id="path3162"
             style="font-style:normal;font-variant:normal;font-weight:normal;font-stretch:normal;font-size:2.32833px;line-height:0.85;font-family:Gudariak;-inkscape-font-specification:Gudariak;text-align:start;letter-spacing:-0.035658px;word-spacing:0px;text-anchor:start;white-space:pre;fill:#000000;fill-opacity:1;fill-rule:evenodd;stroke:none;stroke-width:7.91919;stroke-linecap:round;stroke-linejoin:round;stroke-miterlimit:4;stroke-dasharray:none;stroke-opacity:1;paint-order:markers fill stroke"
             d="m 737.61133,227.42188 c -39.83131,0 -63.66406,35.26018 -63.66406,72.15234 0,26.28595 12.00363,53.46397 38.87695,69.1875 1.28544,0.56187 2.49806,1.22989 3.56445,1.98633 4.91112,3.48381 8.88435,9.87106 8.69727,15.83203 -0.12851,4.08437 -1.50739,7.44427 -3.91797,9.58203 v 0.002 c 0,0 -5.34826,3.64825 -9.1875,3.65039 -4.92325,0.003 -10.60617,-2.99874 -14.60156,-7.51367 L 670.0293,423.3106 c 16.9765,25.13881 35.26059,39.83203 64.9707,39.83203 45.05461,0 69.21289,-33.62924 69.21289,-68.5625 0,-26.02311 -13.19216,-52.87834 -40.33398,-67.84766 -2.3648,-1.04572 -4.62341,-2.30173 -6.67969,-3.32422 -5.84806,-2.90803 -6.0262,-11.83547 -4.30274,-17.54492 1.18073,-3.91208 3.38179,-6.80122 6.26368,-8.24219 h 0.002 c 0,0 4.03322,-1.41244 7.53516,-1.41015 0.80813,5.2e-4 1.58772,0.0758 2.2832,0.26172 2.08267,0.5569 4.15276,1.7163 6.05273,3.28711 l 27.22071,-36.09766 C 784.9509,240.1555 769.27891,227.42193 737.61138,227.42193 Z"
             transform="matrix(0.26458333,0,0,0.26458333,967.51279,-161.21712)" />
        </g>
        <g
           id="g3176"
           style="stroke-width:2.09527"
           transform="translate(-5.2916667)">
          <path
             id="path3170"
             style="font-style:normal;font-variant:normal;font-weight:normal;font-stretch:normal;font-size:2.32833px;line-height:0.85;font-family:Gudariak;-inkscape-font-specification:Gudariak;text-align:start;letter-spacing:-0.035658px;word-spacing:0px;text-anchor:start;white-space:pre;fill:#000000;fill-opacity:1;fill-rule:evenodd;stroke:none;stroke-width:7.91919;stroke-linecap:round;stroke-linejoin:round;stroke-miterlimit:4;stroke-dasharray:none;stroke-opacity:1;paint-order:markers fill stroke"
             d="m 881.1582,227.42188 c -39.82979,0 -63.66211,35.26018 -63.66211,72.15234 0,26.28595 12.00394,53.46397 38.87696,69.1875 1.28544,0.56187 2.49806,1.22989 3.56445,1.98633 4.91112,3.48381 8.88435,9.87106 8.69727,15.83203 -0.12851,4.08437 -1.50739,7.44427 -3.91797,9.58203 v 0.002 c 0,0 -5.34826,3.64825 -9.1875,3.65039 -4.92325,0.003 -10.60617,-2.99874 -14.60157,-7.51367 l -27.34961,31.00977 c 16.97651,25.13881 35.25902,39.83203 64.96876,39.83203 45.05461,0 69.21484,-33.62924 69.21484,-68.5625 0,-26.02311 -13.19211,-52.87834 -40.33399,-67.84766 -2.36504,-1.04572 -4.62341,-2.30173 -6.67968,-3.32422 -5.84807,-2.90803 -6.0262,-11.83547 -4.30274,-17.54492 1.18073,-3.91208 3.38178,-6.80122 6.26367,-8.24219 h 0.002 c 0,0 4.03322,-1.41244 7.53515,-1.41015 0.80814,5.2e-4 1.58968,0.0758 2.28516,0.26172 2.0819,0.55669 4.15139,1.71525 6.05078,3.28515 l 27.2207,-36.0957 C 928.4993,240.15545 912.82724,227.42188 881.1582,227.42188 Z"
             transform="matrix(0.26458333,0,0,0.26458333,967.51279,-161.21712)" />
        </g>
      </g>
      <path
         id="path1116"
         style="fill:#000000;fill-opacity:1;fill-rule:evenodd;stroke:none;stroke-width:9.99988;stroke-linecap:round;stroke-linejoin:round;stroke-miterlimit:4;stroke-dasharray:none;stroke-opacity:1;paint-order:stroke fill markers"
         d="m 1086.8898,18.566134 c -0.2187,0.286018 -0.4418,0.566743 -0.6704,0.840061 -0.7696,0.920367 -1.6268,1.85689 -2.5727,2.81448 h 7.8058 v -3.28333 h 0.8397 v -0.371211 z m 7.0823,0 v 0.371211 h 0.8399 v 1.701999 h -0.8399 v 0.425326 h 0.8399 v 0.850883 h -0.8399 v 0.305122 h 3.6971 v -3.28333 h 0.8401 v -0.371211 z m 0,3.349419 V 21.06467 h -0.84 v 0.850883 z m 0,-1.276209 v -1.701999 h -0.84 v 1.701999 z m 6.2167,-2.07321 v 0.371211 h 0.8401 v 3.28333 h 2.8573 v -0.730448 h 0.8398 v 0.425326 h 0.84 v -1.701767 h -1.6798 v -1.647652 z m 0,0.371211 h -0.8398 v 1.701999 h 0.8398 z m 7.0568,-0.371211 v 0.796768 h -0.8398 v -0.425557 h -0.8398 v 0.850884 h 1.6796 v 2.432446 h 2.8575 v -0.305122 h 0.8398 v -2.978208 h -0.8398 v -0.371211 z m 6.2169,0 v 0.371211 h -0.8397 v 2.978208 h 0.8397 v 0.305122 h 2.8573 v -3.654541 z m 6.217,0 v 0.796768 h -0.84 v -0.425557 h -0.8398 v 2.978208 h 0.8398 v -0.425326 h 0.84 v 0.730448 h 10.0654 v -3.28333 h 0.8398 v -0.371211 z m 12.585,0 v 0.371211 h 0.8398 v 3.28333 h 2.8575 v -3.654541 z m 0,0.371211 h -0.8398 v 1.701999 h 0.8398 z m 5.3769,-0.371211 v 3.349419 h 0.84 v -3.349419 z m 1.6799,0 v 3.654541 h 2.8572 v -3.654541 z m 5.3769,0 v 0.371211 h 0.84 v 2.978208 h -0.84 v 0.305122 h 3.6973 v -0.305122 h 0.8398 v -2.978208 h -0.8398 v -0.371211 z m 0,3.349419 v -2.978208 h -0.8398 v 2.978208 z m 7.0567,-3.349419 v 0.371211 h -0.8398 v 2.978208 h 0.8398 v 0.305122 h 2.8575 v -3.654541 z m 6.217,0 v 3.654541 h 2.755 v -3.654541 z m -1.6798,0.371211 v 2.978208 h 0.8397 v -2.978208 z m -56.9431,2.127325 v 1.156005 h 0.8398 V 21.06467 Z m 32.0757,0 v 1.156005 h 0.8398 V 21.06467 Z m -50.1153,3.400082 c -1.2869,1.178595 -2.7032,2.39295 -4.2513,3.651086 h 7.1863 v -0.688997 h 0.8398 v 0.425557 h 0.8398 V 26.1504 h -1.6796 v -1.685648 z m 6.2945,0 v 0.834764 h -0.8398 v -0.425327 h -0.8401 v 0.850884 h 1.6799 v 2.390765 h 1.5795 v -3.651086 z m 4.9389,0 v 0.409437 h -1.6796 V 26.1504 h 1.6796 v 0.425557 h -1.6796 v 1.276441 h 1.6796 v 0.26344 h 1.5797 v -3.651086 z m 3.2593,0 v 3.387646 h 0.84 v -0.850884 h 0.8398 v 1.114324 h 1.5795 v -3.651086 z m 6.619,0 v 0.834764 h -0.8401 v -0.425327 h -0.8397 v 0.850884 h 1.6798 V 26.1504 h -1.6798 v 1.965438 h 3.2592 v -3.651086 z m 3.2593,0 v 0.834764 h 0.8398 v -0.834764 z m 1.6796,0 v 3.651086 h 1.5794 v -3.651086 z m 4.9392,0 v 3.651086 h 1.5794 v -0.688997 h 0.8398 v 0.425557 h 0.84 V 26.1504 h -1.6798 v -1.685648 z m 4.9389,0 v 0.834764 h -0.8398 v -0.425327 h -0.8399 v 0.850884 h 1.6797 v 2.390765 h 2.4195 v -3.241649 h -0.8398 v -0.409437 z m 4.9391,0 v 0.409437 h -0.84 v 3.241649 h 2.4195 v -3.651086 z m 4.9391,0 v 0.409437 h -1.6798 V 26.1504 h 1.6798 v 0.425557 h -1.6798 v 1.276441 h 1.6798 v 0.26344 h 1.5795 v -3.651086 z m 4.0992,0 v 0.409437 h 0.8397 v 2.978209 h -0.8397 v 0.26344 h 8.3495 v -0.688997 h 0.84 v 0.425557 h 0.8398 V 26.1504 h -1.6798 v -1.685648 z m 0,3.387646 v -2.978209 h -0.8401 v 2.978209 z m 11.7092,-3.387646 v 0.834764 h -0.8401 v -0.425327 h -0.8398 v 0.850884 h 1.6799 v 2.390765 h 1.5795 v -0.26344 h 0.8398 v -2.978209 h -0.8398 v -0.409437 z m 4.9389,0 v 0.409437 h -0.8398 v 2.978209 h 0.8398 v 0.26344 h 2.4195 v -3.241649 h -0.84 v -0.409437 z m 4.9391,0 v 0.409437 h -0.8399 v 3.241649 h 2.4194 v -3.651086 z m 4.9392,0 v 0.409437 h -1.6798 V 26.1504 h 1.6798 v 0.425557 h -1.6798 v 1.276441 h 1.6798 v 0.26344 h 2.985 v -3.651086 z m -47.1226,0.409437 v 2.978209 h 0.8398 v -2.978209 z m -4.9389,0.850884 v 2.390765 h 0.8398 v -2.390765 z"
         sodipodi:nodetypes="cscccccccccccccccccccccccccccccccccccccccccccccccccccccccccccccccccccccccccccccccccccccccccccccccccccccccccccccccccccccccccccccccccccccccccccccccccccccccccccccccccccccccccccccccccccccccccccccccccccccccccccccccccccccccccccccccccccccccccccccccccccccccccccccccccccccccccccccccccccccccccccccccccccccccccccccccccccccccccccccccccccccccccccccccccccccccc" />
      <path
         id="path1120"
         style="font-style:normal;font-variant:normal;font-weight:normal;font-stretch:normal;font-size:2.32833px;line-height:0.85;font-family:Gudariak;-inkscape-font-specification:Gudariak;text-align:start;letter-spacing:-0.035658px;word-spacing:0px;text-anchor:start;white-space:pre;fill:#000000;fill-opacity:1;fill-rule:evenodd;stroke:none;stroke-width:1;stroke-linecap:round;stroke-linejoin:round;stroke-miterlimit:4;stroke-dasharray:none;stroke-opacity:1;paint-order:markers fill stroke"
         d="m 1116.4922,-14.624732 c -10.4339,-0.01303 -8.1415,29.683153 -8.1415,29.683153 h 5.9542 c 0,0 0.187,-3.753526 2.1873,-3.751027 1.9987,0.0025 2.1714,3.751027 2.1714,3.751027 h 5.8876 c 0,0 2.3663,-29.670144 -8.059,-29.683153 z m -0.1262,12.2418282 h 2e-4 c 0,0 0.8034,0.1518653 1.1464,0.4944965 0.6407,0.6400684 0.8564,1.99325296 0.3822,2.9726567 -0.099,0.2039944 -0.6373,0.7698102 -0.8417,0.8814631 -0.1586,0.086547 -1.0407,0.1575869 -1.3084,0.058452 -0.6299,-0.2333043 -1.0883,-0.896966 -1.2213,-1.71088676 -0.1331,-0.81392081 0.088,-1.67477574 0.6373,-2.19033884 0.3761,-0.3532636 0.7984,-0.5058424 1.2053,-0.5058427 z" />
      <path
         id="path1124"
         style="font-style:normal;font-variant:normal;font-weight:normal;font-stretch:normal;font-size:2.32833px;line-height:0.85;font-family:Gudariak;-inkscape-font-specification:Gudariak;text-align:start;letter-spacing:-0.035658px;word-spacing:0px;text-anchor:start;white-space:pre;fill:#000000;fill-opacity:1;fill-rule:evenodd;stroke:none;stroke-width:1;stroke-linecap:round;stroke-linejoin:round;stroke-miterlimit:4;stroke-dasharray:none;stroke-opacity:1;paint-order:markers fill stroke"
         d="m 1134.5156,-14.253797 c -5.0297,0 -8.0392,4.4525004 -8.0392,9.1110804 0,3.3192743 1.5158,6.7511954 4.9092,8.7366937 0.1623,0.07095 0.3155,0.1553051 0.4501,0.2508251 0.6202,0.4399202 1.1219,1.2464741 1.0983,1.9991992 -0.016,0.5157563 -0.1904,0.9400298 -0.4948,1.2099767 v 2.526e-4 c 0,0 -0.6753,0.4606849 -1.1601,0.4609552 -0.6217,3.788e-4 -1.3393,-0.3786677 -1.8439,-0.9487933 l -3.4535,3.9157774 c 2.1437,3.174419 4.4525,5.029814 8.2042,5.029814 5.6893,0 8.7399,-4.246553 8.7399,-8.6577714 0,-3.2860841 -1.6659,-6.67724463 -5.0932,-8.5675046 -0.2986,-0.132049 -0.5838,-0.2906524 -0.8435,-0.419768 -0.7385,-0.3672132 -0.761,-1.4945311 -0.5433,-2.2154954 0.1491,-0.4940003 0.427,-0.8588282 0.7909,-1.0407876 h 3e-4 c 0,0 0.5093,-0.1783567 0.9515,-0.1780675 0.102,6.56e-5 0.2005,0.00957 0.2883,0.033049 0.263,0.070323 0.5244,0.2167268 0.7643,0.4150818 l 3.4373,-4.558254 c -2.1849,-2.9683183 -4.1639,-4.5762573 -8.1628,-4.5762573 z" />
      <path
         id="path1128"
         style="font-style:normal;font-variant:normal;font-weight:normal;font-stretch:normal;font-size:2.32833px;line-height:0.85;font-family:Gudariak;-inkscape-font-specification:Gudariak;text-align:start;letter-spacing:-0.035658px;word-spacing:0px;text-anchor:start;white-space:pre;fill:#000000;fill-opacity:1;fill-rule:evenodd;stroke:none;stroke-width:1;stroke-linecap:round;stroke-linejoin:round;stroke-miterlimit:4;stroke-dasharray:none;stroke-opacity:1;paint-order:markers fill stroke"
         d="m 1152.6421,-14.253797 c -5.0295,0 -8.039,4.4525004 -8.039,9.1110804 0,3.3192743 1.5158,6.7511954 4.9092,8.7366937 0.1623,0.07095 0.3155,0.1553051 0.4501,0.2508251 0.6202,0.4399202 1.1219,1.2464741 1.0983,1.9991992 -0.016,0.5157563 -0.1904,0.9400298 -0.4948,1.2099767 v 2.526e-4 c 0,0 -0.6753,0.4606849 -1.1601,0.4609552 -0.6217,3.788e-4 -1.3393,-0.3786677 -1.8438,-0.9487933 l -3.4536,3.9157774 c 2.1437,3.174419 4.4523,5.029814 8.2039,5.029814 5.6893,0 8.7402,-4.246553 8.7402,-8.6577714 0,-3.2860841 -1.6659,-6.67724463 -5.0932,-8.5675046 -0.2987,-0.132049 -0.5838,-0.2906524 -0.8435,-0.419768 -0.7385,-0.3672132 -0.761,-1.4945311 -0.5433,-2.2154954 0.1491,-0.4940003 0.427,-0.8588282 0.7909,-1.0407876 h 3e-4 c 0,0 0.5093,-0.1783567 0.9515,-0.1780675 0.102,6.56e-5 0.2007,0.00957 0.2885,0.033049 0.2629,0.070296 0.5243,0.2165942 0.7641,0.4148343 l 3.4373,-4.5580065 c -2.185,-2.9683243 -4.164,-4.5762633 -8.163,-4.5762633 z" />
      <circle
         style="fill:url(#linearGradient1165);fill-rule:evenodd;stroke:#ffffff;stroke-width:0.1;stroke-linecap:round;stroke-linejoin:round;paint-order:stroke fill markers;fill-opacity:1"
         id="path1134"
         cx="1015.6761"
         cy="-58.104694"
         r="12.158009" />
      <g
         id="g1150"
         transform="matrix(1.8245828,0,0,1.8245828,-842.13193,57.624635)"
         style="fill:#ffffff;fill-opacity:1;stroke-width:0.54807">
        <path
           id="path1114"
           style="font-style:normal;font-variant:normal;font-weight:normal;font-stretch:normal;font-size:2.32833px;line-height:0.85;font-family:Gudariak;-inkscape-font-specification:Gudariak;text-align:start;letter-spacing:-0.035658px;word-spacing:0px;text-anchor:start;white-space:pre;fill:#ffffff;fill-opacity:1;fill-rule:evenodd;stroke:none;stroke-width:3.77952;stroke-linecap:round;stroke-linejoin:round;stroke-miterlimit:4;stroke-dasharray:none;stroke-opacity:1;paint-order:markers fill stroke"
           d="M -199.04297 55.869141 C -202.18619 55.858107 -205.29661 56.687236 -208.06055 58.171875 C -211.31411 59.781905 -214.3104 62.102912 -216.17578 65.265625 C -218.47493 69.072271 -219.49851 73.693413 -218.60547 78.074219 C -217.93655 81.487334 -215.44766 84.574823 -212.07617 85.611328 C -209.24948 86.534069 -205.92884 86.039977 -203.67383 83.998047 C -200.5244 81.172669 -200.08035 75.789741 -202.92773 72.599609 C -204.62279 70.551852 -207.60942 69.492764 -210.14648 70.503906 C -211.14641 70.80685 -212.03417 71.52298 -213.09961 71.564453 C -214.29401 71.447013 -214.91306 70.033713 -214.54688 68.974609 C -214.02276 67.013563 -213.31744 64.99543 -211.84375 63.533203 C -210.53902 62.224014 -208.85738 61.358207 -207.18164 60.621094 C -205.14317 59.830371 -202.91043 59.276078 -200.7168 59.587891 C -197.0874 60.162333 -194.10069 62.862135 -192.49805 66.080078 C -190.51336 69.877311 -189.94125 74.197549 -189.44336 78.396484 C -188.95374 84.260922 -189.67897 90.193672 -191.22852 95.855469 C -193.26423 103.14258 -196.9724 109.91393 -201.78516 115.73438 C -202.82821 117.07119 -203.9498 118.33727 -205.09375 119.58398 A 45.95153 45.95153 0 0 0 -201.42383 121.44336 C -196.38542 117.02795 -191.60043 112.32994 -187.48242 107.02539 C -182.67242 100.47156 -179.65135 92.700132 -178.36523 84.716797 C -177.71011 80.362686 -177.97191 75.8626 -179.28906 71.666016 C -180.45036 67.63102 -182.53063 63.665264 -185.89453 61.015625 C -189.24395 58.170421 -193.38305 56.068 -197.80273 55.882812 C -198.2165 55.859366 -198.62921 55.860176 -199.04297 55.869141 z M -177.39453 56.388672 L -177.39453 61.396484 C -175.90222 63.53016 -174.71416 65.916725 -173.81836 68.539062 C -171.68679 74.77933 -171.25827 80.791909 -172.4375 87.400391 C -173.36157 92.576553 -175.06642 97.762455 -177.39453 102.52148 L -177.39453 106.14062 L -161.6875 106.14062 C -152.16404 106.14062 -147.68555 100.59664 -147.68555 90.859375 C -147.68555 84.817915 -149.96068 81.620049 -153.58594 79.701172 C -150.45857 77.781081 -148.39648 74.938732 -148.39648 69.537109 C -148.39648 60.723571 -152.5201 56.388672 -161.4043 56.388672 L -177.39453 56.388672 z M -161.92773 63.292969 L -161.92578 63.292969 L -161.92383 63.292969 C -161.91245 63.295123 -159.69152 63.717632 -158.74023 64.667969 C -156.95829 66.447925 -156.35875 70.211934 -157.67383 72.935547 C -157.94967 73.502886 -159.44475 75.076224 -160.01367 75.386719 C -160.44812 75.62746 -162.90826 75.824602 -163.65234 75.548828 C -165.40394 74.900116 -166.67655 73.054434 -167.04688 70.791016 C -167.42616 68.527584 -166.80563 66.132937 -165.27539 64.699219 C -164.23253 63.719222 -161.93909 63.295063 -161.92773 63.292969 z M -162.36719 84.703125 C -161.27807 84.637869 -160.11223 85.036882 -158.97266 86.072266 C -157.4969 87.413232 -156.96875 88.714581 -156.96875 91.119141 C -156.96875 94.229181 -158.30327 96.328006 -160.48242 97.279297 C -160.64103 97.348533 -163.01775 97.542294 -163.1543 97.507812 C -165.76101 96.849997 -167.96728 93.512116 -167.30664 90.009766 C -166.78323 87.233658 -164.76324 84.846688 -162.36719 84.703125 z "
           transform="matrix(0.14501032,0,0,0.14501032,1044.6769,-74.965168)" />
      </g>
    </g>
  </g>
</svg>
